<svg xmlns="http://www.w3.org/2000/svg" xmlns:xlink="http://www.w3.org/1999/xlink" width="1000" zoomAndPan="magnify" viewBox="0 0 750 374.999991" height="500" preserveAspectRatio="xMidYMid meet" version="1.0"><defs><g/><clipPath id="87606bd41f"><path d="M 0 0 L 482.648438 0 L 482.648438 375 L 0 375 Z M 0 0 " clip-rule="nonzero"/></clipPath><clipPath id="15cbdef022"><path d="M 16.5 0 L 465.222656 0 C 469.796875 0 474.183594 1.816406 477.417969 5.050781 C 480.65625 8.289062 482.472656 12.675781 482.472656 17.25 L 482.472656 357.75 C 482.472656 362.324219 480.65625 366.710938 477.417969 369.949219 C 474.183594 373.183594 469.796875 375 465.222656 375 L 16.5 375 C 11.925781 375 7.539062 373.183594 4.300781 369.949219 C 1.066406 366.710938 -0.75 362.324219 -0.75 357.75 L -0.75 17.25 C -0.75 12.675781 1.066406 8.289062 4.300781 5.050781 C 7.539062 1.816406 11.925781 0 16.5 0 " clip-rule="nonzero"/></clipPath><clipPath id="b8ef90420f"><path d="M 375 0 L 750 0 L 750 375 L 375 375 Z M 375 0 " clip-rule="nonzero"/></clipPath><clipPath id="e52b375b8d"><path d="M 392.25 0 L 732.75 0 C 737.324219 0 741.710938 1.816406 744.949219 5.050781 C 748.183594 8.289062 750 12.675781 750 17.25 L 750 357.75 C 750 362.324219 748.183594 366.710938 744.949219 369.949219 C 741.710938 373.183594 737.324219 375 732.75 375 L 392.25 375 C 387.675781 375 383.289062 373.183594 380.050781 369.949219 C 376.816406 366.710938 375 362.324219 375 357.75 L 375 17.25 C 375 12.675781 376.816406 8.289062 380.050781 5.050781 C 383.289062 1.816406 387.675781 0 392.25 0 " clip-rule="nonzero"/></clipPath></defs><g clip-path="url(#87606bd41f)"><g clip-path="url(#15cbdef022)"><path fill="#ffc25b" d="M -0.75 0 L 482.648438 0 L 482.648438 374.414062 L -0.75 374.414062 Z M -0.75 0 " fill-opacity="1" fill-rule="nonzero"/></g></g><g clip-path="url(#b8ef90420f)"><g clip-path="url(#e52b375b8d)"><path fill="#545454" d="M 375 0 L 749.414062 0 L 749.414062 374.414062 L 375 374.414062 Z M 375 0 " fill-opacity="1" fill-rule="nonzero"/></g></g><g fill="#545454" fill-opacity="1"><g transform="translate(34.511725, 184.805133)"><g><path d="M 107.347656 -8.667969 L 106.582031 -5.863281 C 87.96875 -5.609375 67.570312 -9.179688 67.824219 -32.128906 C 70.628906 -83.890625 153.757812 -73.4375 153.757812 -126.472656 C 153.757812 -154.519531 132.335938 -165.742188 107.09375 -165.742188 L 7.90625 -165.742188 L 7.90625 -97.914062 C 7.90625 -97.914062 64 -90.519531 64.511719 -131.570312 C 64.765625 -144.066406 59.667969 -151.972656 52.273438 -157.070312 L 53.292969 -159.621094 C 74.457031 -159.367188 98.425781 -156.816406 92.050781 -128.765625 C 82.871094 -87.714844 4.078125 -92.050781 4.078125 -35.953125 L 4.078125 0 L 149.675781 0 L 149.929688 -71.90625 C 149.929688 -71.90625 92.558594 -79.554688 91.792969 -36.207031 C 91.792969 -21.417969 98.425781 -13.515625 107.347656 -8.667969 Z M 107.347656 -8.667969 "/></g></g></g><g fill="#545454" fill-opacity="1"><g transform="translate(190.307265, 184.805133)"><g><path d="M 5.609375 -165.996094 L 5.863281 -94.089844 C 5.863281 -94.089844 64.765625 -86.441406 65.277344 -129.789062 C 65.53125 -142.792969 60.175781 -151.207031 52.527344 -156.5625 L 53.800781 -159.367188 C 70.375 -156.5625 81.339844 -143.046875 82.105469 -128.257812 C 83.378906 -108.625 68.335938 -87.203125 42.328125 -86.441406 L 42.328125 -81.339844 C 63.492188 -80.832031 82.359375 -69.101562 82.871094 -47.9375 C 83.125 -29.832031 71.652344 -10.964844 53.546875 -6.882812 L 52.273438 -9.6875 C 59.921875 -15.042969 65.277344 -23.457031 65.277344 -36.460938 C 65.785156 -75.21875 18.359375 -72.671875 5.609375 -72.671875 L 5.863281 -0.253906 L 101.230469 -0.253906 C 158.855469 -0.253906 161.40625 -69.609375 113.722656 -83.890625 C 160.128906 -98.167969 152.226562 -165.996094 101.230469 -165.996094 Z M 5.609375 -165.996094 "/></g></g></g><g fill="#545454" fill-opacity="1"><g transform="translate(36.213402, 357.14876)"><g><path d="M 61.710938 -166.003906 C 34.679688 -166.003906 4.84375 -162.179688 3.316406 -127.753906 C 0.765625 -74.714844 84.148438 -85.425781 86.953125 -34.171875 C 86.191406 -11.476562 70.636719 -7.140625 51 -6.628906 L 50.234375 -9.433594 C 59.414062 -14.535156 65.535156 -21.675781 65.28125 -36.464844 C 64.769531 -79.816406 7.140625 -72.164062 7.140625 -72.164062 L 7.394531 -0.253906 L 103.019531 -0.253906 C 133.109375 -0.253906 145.605469 -18.871094 148.664062 -37.230469 C 152.234375 -58.648438 141.269531 -74.460938 117.808594 -87.464844 C 100.46875 -97.15625 68.339844 -109.394531 69.105469 -133.621094 C 69.613281 -154.785156 90.015625 -161.414062 108.375 -160.394531 L 108.886719 -157.589844 C 99.960938 -152.746094 93.074219 -146.371094 93.328125 -131.835938 C 93.839844 -90.78125 148.410156 -98.175781 148.410156 -98.175781 L 148.15625 -166.003906 Z M 61.710938 -166.003906 "/></g></g></g><g fill="#545454" fill-opacity="1"><g transform="translate(189.4681, 357.14876)"><g><path d="M 40.035156 -93.839844 L 40.289062 0 L 103.019531 0 L 102.765625 -97.15625 L 132.089844 -97.15625 L 132.089844 -165.75 L 6.628906 -165.75 L 6.628906 -96.898438 C 18.359375 -96.898438 63.238281 -94.351562 62.730469 -130.816406 C 62.476562 -144.585938 56.101562 -150.703125 47.683594 -155.550781 L 48.703125 -158.355469 C 95.113281 -150.960938 82.621094 -96.136719 40.035156 -93.839844 Z M 40.035156 -93.839844 "/></g></g></g><g fill="#ffc25b" fill-opacity="1"><g transform="translate(409.511701, 184.805133)"><g><path d="M 107.347656 -8.667969 L 106.582031 -5.863281 C 87.96875 -5.609375 67.570312 -9.179688 67.824219 -32.128906 C 70.628906 -83.890625 153.757812 -73.4375 153.757812 -126.472656 C 153.757812 -154.519531 132.335938 -165.742188 107.09375 -165.742188 L 7.90625 -165.742188 L 7.90625 -97.914062 C 7.90625 -97.914062 64 -90.519531 64.511719 -131.570312 C 64.765625 -144.066406 59.667969 -151.972656 52.273438 -157.070312 L 53.292969 -159.621094 C 74.457031 -159.367188 98.425781 -156.816406 92.050781 -128.765625 C 82.871094 -87.714844 4.078125 -92.050781 4.078125 -35.953125 L 4.078125 0 L 149.675781 0 L 149.929688 -71.90625 C 149.929688 -71.90625 92.558594 -79.554688 91.792969 -36.207031 C 91.792969 -21.417969 98.425781 -13.515625 107.347656 -8.667969 Z M 107.347656 -8.667969 "/></g></g></g><g fill="#ffc25b" fill-opacity="1"><g transform="translate(565.307241, 184.805133)"><g><path d="M 5.609375 -165.996094 L 5.863281 -94.089844 C 5.863281 -94.089844 64.765625 -86.441406 65.277344 -129.789062 C 65.53125 -142.792969 60.175781 -151.207031 52.527344 -156.5625 L 53.800781 -159.367188 C 70.375 -156.5625 81.339844 -143.046875 82.105469 -128.257812 C 83.378906 -108.625 68.335938 -87.203125 42.328125 -86.441406 L 42.328125 -81.339844 C 63.492188 -80.832031 82.359375 -69.101562 82.871094 -47.9375 C 83.125 -29.832031 71.652344 -10.964844 53.546875 -6.882812 L 52.273438 -9.6875 C 59.921875 -15.042969 65.277344 -23.457031 65.277344 -36.460938 C 65.785156 -75.21875 18.359375 -72.671875 5.609375 -72.671875 L 5.863281 -0.253906 L 101.230469 -0.253906 C 158.855469 -0.253906 161.40625 -69.609375 113.722656 -83.890625 C 160.128906 -98.167969 152.226562 -165.996094 101.230469 -165.996094 Z M 5.609375 -165.996094 "/></g></g></g><g fill="#ffc25b" fill-opacity="1"><g transform="translate(411.213381, 357.14876)"><g><path d="M 61.710938 -166.003906 C 34.679688 -166.003906 4.84375 -162.179688 3.316406 -127.753906 C 0.765625 -74.714844 84.148438 -85.425781 86.953125 -34.171875 C 86.191406 -11.476562 70.636719 -7.140625 51 -6.628906 L 50.234375 -9.433594 C 59.414062 -14.535156 65.535156 -21.675781 65.28125 -36.464844 C 64.769531 -79.816406 7.140625 -72.164062 7.140625 -72.164062 L 7.394531 -0.253906 L 103.019531 -0.253906 C 133.109375 -0.253906 145.605469 -18.871094 148.664062 -37.230469 C 152.234375 -58.648438 141.269531 -74.460938 117.808594 -87.464844 C 100.46875 -97.15625 68.339844 -109.394531 69.105469 -133.621094 C 69.613281 -154.785156 90.015625 -161.414062 108.375 -160.394531 L 108.886719 -157.589844 C 99.960938 -152.746094 93.074219 -146.371094 93.328125 -131.835938 C 93.839844 -90.78125 148.410156 -98.175781 148.410156 -98.175781 L 148.15625 -166.003906 Z M 61.710938 -166.003906 "/></g></g></g><g fill="#ffc25b" fill-opacity="1"><g transform="translate(564.468079, 357.14876)"><g><path d="M 40.035156 -93.839844 L 40.289062 0 L 103.019531 0 L 102.765625 -97.15625 L 132.089844 -97.15625 L 132.089844 -165.75 L 6.628906 -165.75 L 6.628906 -96.898438 C 18.359375 -96.898438 63.238281 -94.351562 62.730469 -130.816406 C 62.476562 -144.585938 56.101562 -150.703125 47.683594 -155.550781 L 48.703125 -158.355469 C 95.113281 -150.960938 82.621094 -96.136719 40.035156 -93.839844 Z M 40.035156 -93.839844 "/></g></g></g></svg>